<?xml version="1.0" encoding="UTF-8"?><svg width="24" height="14" viewBox="0 0 24 14" xmlns="http://www.w3.org/2000/svg" xmlns:xlink="http://www.w3.org/1999/xlink"><svg width="24" height="14" viewBox="0 0 24 14" id="L1VzZXJzL3N3ZXRhL2h0ZG9jcy9ldmVudHMvcHVibGljL2ltZy9zcHJpdGUvc3ByaXRlLnN2Zw=="><svg width="24" height="14" viewBox="0 0 24 14"><svg width="24" height="14" viewBox="0 0 24 14"><svg width="24" height="14" viewBox="0 0 24 14"><svg width="24" height="14" viewBox="0 0 24 14"><svg width="24" height="14" viewBox="0 0 24 14"><svg width="24" height="14" viewBox="0 0 24 14"><svg width="24" height="14" viewBox="0 0 24 14"><svg width="24" height="14" viewBox="0 0 24 14"><svg width="24" height="14" viewBox="0 0 24 14"><svg width="12" height="11" viewBox="0 0 12 11" x="12"><title>D174ED0B-03F3-4B1F-B199-C5D0CF98503A</title><path d="M6.3 0C4.2 0 2.34 1.1 1.38 2.779L0 1.447v3.764h3.9L2.22 3.589A4.589 4.589 0 0 1 6.3 1.158c2.46 0 4.5 1.968 4.5 4.342 0 2.374-2.04 4.342-4.5 4.342-1.98 0-3.6-1.216-4.26-2.895H.78C1.44 9.263 3.66 11 6.3 11 9.48 11 12 8.51 12 5.5S9.42 0 6.3 0zm-.9 2.895v2.952l2.82 1.621.48-.752-2.4-1.39V2.895h-.9z" fill="#556166" fill-rule="evenodd" opacity=".9"/></svg><svg width="12" height="14" viewBox="0 0 12 14"><title>9CAB6C02-D2B3-4E4A-AE08-5FAE6AFC708B</title><path d="M8.02 3.138L4.882 0v2.162C2.162 2.51 0 4.812 0 7.672c0 2.858 2.162 5.16 4.882 5.508v-1.394c-1.953-.35-3.487-2.023-3.487-4.115s1.534-3.766 3.487-4.114v2.72l3.138-3.14zm3.068 3.836a5.803 5.803 0 0 0-1.116-2.72l-.976.976c.349.558.628 1.116.697 1.744h1.395zm-4.812 4.812v1.394a5.803 5.803 0 0 0 2.72-1.116l-.976-.976c-.558.349-1.116.628-1.744.698zm2.72-1.674l.976.976c.628-.837 1.046-1.743 1.116-2.72H9.693c-.07.628-.348 1.186-.697 1.744z" fill="#566166" fill-rule="evenodd"/></svg></svg></svg></svg></svg></svg></svg></svg></svg></svg></svg></svg>