<?xml version="1.0" encoding="UTF-8"?>
<svg width="12px" height="11px" viewBox="0 0 12 11" version="1.1" xmlns="http://www.w3.org/2000/svg" xmlns:xlink="http://www.w3.org/1999/xlink">
    <!-- Generator: sketchtool 41.2 (35397) - http://www.bohemiancoding.com/sketch -->
    <title>D174ED0B-03F3-4B1F-B199-C5D0CF98503A</title>
    <desc>Created with sketchtool.</desc>
    <defs></defs>
    <g id="Orange" stroke="none" stroke-width="1" fill="none" fill-rule="evenodd" opacity="0.9">
        <g id="Homepage" transform="translate(-900.000000, -732.000000)" fill="#556166">
            <g id="btn_past_events" transform="translate(900.000000, 729.000000)">
                <g id="history" transform="translate(0.000000, 3.000000)">
                    <path d="M6.3,0 C4.2,0 2.34,1.1 1.38,2.77894737 L0,1.44736842 L0,5.21052632 L3.9,5.21052632 L2.22,3.58947368 C3,2.14210526 4.5,1.15789474 6.3,1.15789474 C8.76,1.15789474 10.8,3.12631579 10.8,5.5 C10.8,7.87368421 8.76,9.84210526 6.3,9.84210526 C4.32,9.84210526 2.7,8.62631579 2.04,6.94736842 L0.78,6.94736842 C1.44,9.26315789 3.66,11 6.3,11 C9.48,11 12,8.51052632 12,5.5 C12,2.48947368 9.42,0 6.3,0 L6.3,0 Z M5.4,2.89473684 L5.4,5.84736842 L8.22,7.46842105 L8.7,6.71578947 L6.3,5.32631579 L6.3,2.89473684 L5.4,2.89473684 L5.4,2.89473684 Z" id="Shape"></path>
                </g>
            </g>
        </g>
    </g>
</svg>