<?xml version="1.0" encoding="UTF-8"?>
<svg width="12px" height="14px" viewBox="0 0 12 14" version="1.1" xmlns="http://www.w3.org/2000/svg" xmlns:xlink="http://www.w3.org/1999/xlink">
    <!-- Generator: sketchtool 41.2 (35397) - http://www.bohemiancoding.com/sketch -->
    <title>1D6E37ED-B17F-40AE-8920-474883A472EF</title>
    <desc>Created with sketchtool.</desc>
    <defs></defs>
    <g id="Orange" stroke="none" stroke-width="1" fill="none" fill-rule="evenodd" opacity="0.5">
        <g id="Upcoming_past_events_mobile" transform="translate(-114.000000, -31.000000)" fill="#566166">
            <g id="btn_upcoming_events" transform="translate(114.000000, 17.000000)">
                <g id="rotate-right" transform="translate(0.000000, 14.000000)">
                    <path d="M8.01973684,3.13815789 L4.88157895,0 L4.88157895,2.16184211 C2.16184211,2.51052632 0,4.81184211 0,7.67105263 C0,10.5302632 2.16184211,12.8315789 4.88157895,13.1802632 L4.88157895,11.7855263 C2.92894737,11.4368421 1.39473684,9.76315789 1.39473684,7.67105263 C1.39473684,5.57894737 2.92894737,3.90526316 4.88157895,3.55657895 L4.88157895,6.27631579 L8.01973684,3.13815789 L8.01973684,3.13815789 Z M11.0881579,6.97368421 C10.9486842,5.99736842 10.6,5.09078947 9.97236842,4.25394737 L8.99605263,5.23026316 C9.34473684,5.78815789 9.62368421,6.34605263 9.69342105,6.97368421 L11.0881579,6.97368421 L11.0881579,6.97368421 Z M6.27631579,11.7855263 L6.27631579,13.1802632 C7.25263158,13.0407895 8.15921053,12.6921053 8.99605263,12.0644737 L8.01973684,11.0881579 C7.46184211,11.4368421 6.90394737,11.7157895 6.27631579,11.7855263 L6.27631579,11.7855263 Z M8.99605263,10.1118421 L9.97236842,11.0881579 C10.6,10.2513158 11.0184211,9.34473684 11.0881579,8.36842105 L9.69342105,8.36842105 C9.62368421,8.99605263 9.34473684,9.55394737 8.99605263,10.1118421 L8.99605263,10.1118421 Z" id="Shape"></path>
                </g>
            </g>
        </g>
    </g>
</svg>